<?xml version="1.0" encoding="utf-8"?>
<!-- Generator: Adobe Illustrator 16.0.0, SVG Export Plug-In . SVG Version: 6.00 Build 0)  -->
<!DOCTYPE svg PUBLIC "-//W3C//DTD SVG 1.1//EN" "http://www.w3.org/Graphics/SVG/1.1/DTD/svg11.dtd">
<svg version="1.1" id="Ebene_1" xmlns="http://www.w3.org/2000/svg" xmlns:xlink="http://www.w3.org/1999/xlink" x="0px" y="0px"
	 width="100px" height="100px" viewBox="0 0 100 100" style="enable-background:new 0 0 100 100;" xml:space="preserve">
<style type="text/css">
<![CDATA[
	.st0{fill:none;stroke:#00FF4E;stroke-miterlimit:10;}
	.st1{fill:none;stroke:#000001;stroke-width:3;stroke-miterlimit:10;}
	.st2{fill:none;stroke:#0D9133;stroke-miterlimit:10;}
	.st3{fill:none;stroke:#0A7528;stroke-miterlimit:10;}
	.st4{fill:none;stroke:#000001;stroke-width:2;stroke-miterlimit:10;}
	.st5{fill:none;}
	.st6{fill:none;stroke:#00ED4F;stroke-width:5;stroke-miterlimit:10;}
	.st7{fill:#000001;}
	.st8{fill:#00ED4F;}
	.st9{fill:none;stroke:#00ED4F;stroke-width:4;stroke-miterlimit:10;}
]]>
</style>
<g>
	<path d="M16.254,20.466H13.42V10.188h5.053c0.477,0,0.936,0.057,1.379,0.168s0.834,0.288,1.174,0.528s0.611,0.551,0.814,0.932
		c0.201,0.38,0.303,0.842,0.303,1.384c0,0.424-0.09,0.822-0.268,1.195c-0.18,0.374-0.416,0.707-0.715,1
		c-0.297,0.292-0.639,0.535-1.023,0.728c-0.387,0.193-0.785,0.32-1.199,0.382c0.186,0.313,0.379,0.611,0.582,0.892
		c0.203,0.281,0.406,0.544,0.613,0.789s0.412,0.471,0.617,0.678s0.4,0.396,0.586,0.567c0.438,0.399,0.871,0.745,1.299,1.035h-3.533
		c-0.285-0.271-0.557-0.598-0.814-0.978c-0.219-0.323-0.438-0.725-0.658-1.203c-0.223-0.478-0.393-1.03-0.51-1.659h-0.865V20.466z
		 M19.266,13.2c0-0.689-0.168-1.196-0.502-1.52c-0.336-0.324-0.84-0.485-1.512-0.485h-0.998v4.46h0.998
		c0.357,0,0.664-0.067,0.918-0.203s0.463-0.316,0.625-0.542c0.16-0.227,0.281-0.486,0.355-0.782
		C19.229,13.833,19.266,13.523,19.266,13.2z"/>
	<path d="M41.963,20.466h-5.574V19.16h1.369v-7.665h-1.369v-1.307h4.203v8.972h1.371V20.466z"/>
	<path d="M44.043,82.571c0,0.423-0.057,0.788-0.172,1.096c-0.113,0.307-0.27,0.569-0.465,0.788s-0.424,0.403-0.688,0.553
		c-0.264,0.15-0.545,0.282-0.846,0.396s-0.609,0.217-0.932,0.308c-0.322,0.09-0.639,0.185-0.953,0.285
		c-0.313,0.1-0.615,0.214-0.906,0.343c-0.289,0.128-0.551,0.286-0.785,0.475c-0.232,0.188-0.432,0.414-0.598,0.678
		c-0.168,0.264-0.283,0.582-0.344,0.953h6.688v1.313h-9.734c0.104-0.656,0.254-1.224,0.449-1.702s0.42-0.888,0.678-1.23
		s0.537-0.63,0.838-0.86c0.303-0.23,0.613-0.426,0.932-0.586c0.32-0.159,0.641-0.292,0.965-0.399
		c0.322-0.107,0.633-0.211,0.934-0.31c0.299-0.101,0.58-0.206,0.84-0.318s0.484-0.251,0.676-0.417
		c0.193-0.167,0.346-0.37,0.455-0.61s0.164-0.539,0.164-0.896c0-0.324-0.055-0.606-0.164-0.85s-0.26-0.444-0.451-0.606
		c-0.189-0.162-0.414-0.283-0.672-0.364c-0.26-0.081-0.539-0.121-0.832-0.121c-0.311,0-0.596,0.057-0.861,0.172
		c-0.264,0.113-0.502,0.274-0.713,0.481c-0.213,0.207-0.395,0.455-0.551,0.745c-0.154,0.29-0.271,0.614-0.354,0.971l-2.189-1.213
		c0.195-0.399,0.471-0.747,0.832-1.042c0.357-0.295,0.758-0.541,1.195-0.739c0.438-0.197,0.893-0.345,1.365-0.442
		c0.475-0.098,0.922-0.146,1.346-0.146c0.408,0,0.814,0.017,1.213,0.051c0.4,0.033,0.779,0.095,1.139,0.185
		c0.359,0.092,0.691,0.215,0.996,0.372s0.568,0.358,0.791,0.603c0.225,0.245,0.398,0.539,0.525,0.882
		C43.979,81.707,44.043,82.109,44.043,82.571z"/>
	<path d="M60.229,20.655c-0.422,0-0.883-0.049-1.377-0.146s-0.977-0.245-1.443-0.442c-0.465-0.198-0.887-0.443-1.268-0.739
		c-0.383-0.294-0.67-0.642-0.865-1.042l2.547-1.206c0,0.328,0.07,0.637,0.205,0.925c0.137,0.287,0.314,0.538,0.539,0.753
		c0.223,0.214,0.479,0.383,0.768,0.507c0.287,0.123,0.586,0.186,0.895,0.186c0.295,0,0.584-0.045,0.863-0.132
		c0.281-0.089,0.531-0.218,0.746-0.39c0.217-0.171,0.391-0.382,0.525-0.632c0.133-0.249,0.199-0.536,0.199-0.859
		c0-0.357-0.061-0.662-0.182-0.918c-0.121-0.254-0.287-0.462-0.5-0.624c-0.211-0.161-0.459-0.28-0.742-0.356
		s-0.586-0.114-0.91-0.114h-1.393v-1.213h1.393c0.223,0,0.441-0.029,0.652-0.086c0.213-0.058,0.4-0.145,0.564-0.265
		c0.164-0.118,0.295-0.268,0.396-0.446c0.1-0.178,0.15-0.386,0.15-0.624c0-0.266-0.045-0.49-0.137-0.671
		c-0.09-0.181-0.215-0.327-0.375-0.438c-0.158-0.111-0.346-0.192-0.559-0.243c-0.215-0.05-0.447-0.075-0.693-0.075
		c-0.238,0-0.469,0.031-0.691,0.094c-0.225,0.062-0.422,0.154-0.594,0.277c-0.172,0.124-0.309,0.28-0.414,0.469
		c-0.104,0.188-0.156,0.407-0.156,0.659l-2.035-1.491c0.201-0.247,0.459-0.459,0.771-0.635c0.314-0.177,0.65-0.318,1.01-0.426
		c0.361-0.106,0.725-0.185,1.092-0.234C59.58,10.024,59.92,10,60.229,10c0.285,0,0.59,0.016,0.91,0.046
		c0.322,0.031,0.639,0.085,0.953,0.16c0.314,0.077,0.615,0.179,0.906,0.308s0.545,0.29,0.764,0.485s0.393,0.428,0.525,0.699
		c0.129,0.271,0.195,0.588,0.195,0.949c0,0.219-0.049,0.432-0.143,0.639c-0.096,0.207-0.219,0.398-0.371,0.574
		c-0.152,0.177-0.326,0.333-0.521,0.468c-0.195,0.136-0.393,0.242-0.592,0.317c0.332,0.071,0.652,0.189,0.957,0.354
		s0.572,0.366,0.803,0.606s0.414,0.516,0.547,0.824c0.137,0.31,0.205,0.645,0.205,1.007c0,0.461-0.078,0.862-0.232,1.202
		s-0.361,0.63-0.621,0.867c-0.26,0.238-0.561,0.432-0.906,0.582c-0.344,0.149-0.707,0.266-1.088,0.35
		c-0.381,0.083-0.768,0.141-1.164,0.171C60.961,20.64,60.586,20.655,60.229,20.655z"/>
	<path d="M65.033,87.21h-0.715v2.341h-2.834V87.21h-5.873c0.129-0.547,0.295-1.106,0.5-1.677c0.203-0.571,0.436-1.136,0.695-1.691
		c0.26-0.558,0.541-1.102,0.846-1.635c0.305-0.532,0.623-1.035,0.957-1.506h1.977c-0.41,0.681-0.752,1.332-1.023,1.955
		c-0.275,0.624-0.494,1.178-0.66,1.663c-0.195,0.566-0.348,1.095-0.459,1.585h3.041v-6.631h2.834v6.631h0.715V87.21z"/>
	<path d="M86.516,17.208c0,0.461-0.076,0.866-0.232,1.213c-0.154,0.348-0.361,0.645-0.621,0.892
		c-0.258,0.248-0.559,0.452-0.904,0.614s-0.709,0.29-1.09,0.386c-0.379,0.096-0.768,0.162-1.162,0.199
		c-0.395,0.038-0.771,0.058-1.129,0.058c-0.422,0-0.881-0.049-1.375-0.146c-0.496-0.098-0.977-0.245-1.443-0.442
		s-0.889-0.443-1.27-0.738s-0.67-0.643-0.863-1.043l2.547-1.206c0,0.328,0.068,0.637,0.203,0.925
		c0.137,0.288,0.314,0.539,0.539,0.753c0.223,0.214,0.479,0.383,0.768,0.507c0.287,0.123,0.586,0.186,0.895,0.186
		c0.295,0,0.584-0.051,0.863-0.153c0.281-0.103,0.531-0.249,0.746-0.439c0.217-0.189,0.393-0.417,0.525-0.682
		c0.133-0.264,0.201-0.558,0.201-0.881c0-0.356-0.061-0.671-0.184-0.942c-0.121-0.271-0.287-0.496-0.498-0.674
		c-0.213-0.179-0.461-0.313-0.744-0.403c-0.281-0.091-0.586-0.136-0.91-0.136c-0.75,0-1.4,0.029-1.947,0.089s-1,0.125-1.355,0.196
		c-0.42,0.086-0.77,0.182-1.049,0.285l1.07-5.538h7.572v1.313h-5.24l-0.506,2.505c0.209-0.019,0.434-0.034,0.676-0.046
		c0.24-0.012,0.5-0.019,0.779-0.019c0.633,0,1.201,0.05,1.703,0.15c0.502,0.1,0.943,0.234,1.324,0.403
		c0.379,0.169,0.703,0.365,0.971,0.589c0.266,0.224,0.482,0.46,0.652,0.71c0.17,0.249,0.293,0.504,0.371,0.764
		C86.477,16.714,86.516,16.965,86.516,17.208z"/>
	<path d="M86.58,86.425c0,0.643-0.139,1.189-0.414,1.642c-0.275,0.451-0.65,0.82-1.121,1.106c-0.471,0.285-1.02,0.495-1.641,0.628
		C82.779,89.934,82.123,90,81.434,90c-0.371,0-0.754-0.035-1.148-0.106c-0.396-0.071-0.781-0.188-1.156-0.347
		c-0.377-0.159-0.732-0.366-1.068-0.621c-0.334-0.254-0.629-0.566-0.881-0.938s-0.451-0.805-0.6-1.299
		c-0.146-0.495-0.221-1.059-0.221-1.691c0-0.59,0.063-1.142,0.189-1.652c0.125-0.512,0.305-0.979,0.535-1.402
		c0.23-0.424,0.51-0.801,0.834-1.132c0.326-0.33,0.689-0.609,1.09-0.838c0.398-0.229,0.832-0.402,1.295-0.521
		s0.947-0.179,1.451-0.179c0.486,0,0.934,0.027,1.346,0.083c0.412,0.055,0.799,0.148,1.164,0.281
		c0.363,0.133,0.709,0.311,1.039,0.532c0.328,0.221,0.652,0.495,0.977,0.823l-1.221,1.442c-0.1-0.262-0.234-0.51-0.402-0.746
		c-0.17-0.235-0.365-0.442-0.59-0.621c-0.223-0.179-0.471-0.319-0.746-0.424c-0.273-0.105-0.568-0.157-0.889-0.157
		c-0.447,0-0.865,0.072-1.258,0.218c-0.393,0.145-0.742,0.363-1.043,0.656c-0.303,0.293-0.551,0.661-0.742,1.106
		c-0.193,0.444-0.313,0.969-0.359,1.573c0.203-0.242,0.43-0.441,0.676-0.596c0.248-0.154,0.504-0.277,0.764-0.367
		c0.264-0.091,0.525-0.152,0.785-0.186c0.262-0.034,0.512-0.05,0.75-0.05c0.643,0,1.242,0.069,1.799,0.21s1.041,0.357,1.451,0.649
		c0.414,0.293,0.736,0.664,0.973,1.113C86.463,85.266,86.58,85.802,86.58,86.425z M83.768,86.425c0-0.404-0.063-0.756-0.189-1.053
		c-0.125-0.297-0.295-0.543-0.51-0.738s-0.463-0.341-0.746-0.436s-0.58-0.143-0.889-0.143c-0.301,0-0.584,0.05-0.855,0.149
		s-0.512,0.249-0.723,0.446c-0.209,0.197-0.375,0.445-0.498,0.742c-0.125,0.298-0.188,0.641-0.188,1.031
		c0,0.348,0.064,0.666,0.191,0.956c0.125,0.291,0.293,0.541,0.506,0.75c0.211,0.209,0.453,0.372,0.723,0.488
		c0.271,0.117,0.553,0.175,0.844,0.175s0.576-0.053,0.855-0.16c0.281-0.107,0.531-0.262,0.75-0.464s0.395-0.449,0.527-0.742
		C83.701,87.135,83.768,86.801,83.768,86.425z"/>
	<polygon class="st7" points="79.445,25.233 79.445,47.845 62.348,47.845 62.348,25.233 58.297,25.233 58.297,47.845 41.199,47.845 
		41.199,25.233 37.15,25.233 37.15,47.845 20.053,47.845 20.053,25.233 16.004,25.233 16.004,51.895 18.027,51.895 20.053,51.895 
		37.15,51.895 37.15,74.507 41.199,74.507 41.199,51.895 58.297,51.895 58.297,74.507 62.348,74.507 62.348,51.895 79.445,51.895 
		79.445,74.507 83.494,74.507 83.494,25.233 	"/>
</g>
</svg>
