<?xml version="1.0" encoding="utf-8"?>
<!-- Generator: Adobe Illustrator 16.0.0, SVG Export Plug-In . SVG Version: 6.00 Build 0)  -->
<!DOCTYPE svg PUBLIC "-//W3C//DTD SVG 1.1//EN" "http://www.w3.org/Graphics/SVG/1.1/DTD/svg11.dtd">
<svg version="1.1" id="Ebene_1" xmlns="http://www.w3.org/2000/svg" xmlns:xlink="http://www.w3.org/1999/xlink" x="0px" y="0px"
	 width="100px" height="100px" viewBox="0 0 100 100" style="enable-background:new 0 0 100 100;" xml:space="preserve">
<style type="text/css">
<![CDATA[
	.st0{fill:none;stroke:#00FF4E;stroke-miterlimit:10;}
	.st1{fill:none;stroke:#000001;stroke-width:3;stroke-miterlimit:10;}
	.st2{fill:none;stroke:#0D9133;stroke-miterlimit:10;}
	.st3{fill:none;stroke:#0A7528;stroke-miterlimit:10;}
	.st4{fill:none;stroke:#000001;stroke-width:2;stroke-miterlimit:10;}
	.st5{fill:none;}
	.st6{fill:none;stroke:#00ED4F;stroke-width:5;stroke-miterlimit:10;}
	.st7{fill:#000001;}
	.st8{fill:#00ED4F;}
	.st9{fill:none;stroke:#00ED4F;stroke-width:4;stroke-miterlimit:10;}
]]>
</style>
<g>
	<g>
		<path d="M43.004,12c2.374,0,4.297,0.548,5.876,1.673c1.381,0.986,2.024,2.341,2.024,4.263c0,2.875-1.594,5.939-4.736,9.108
			c-2.856,2.876-6.022,5.401-9.436,7.527c0.477-0.418,0.942-0.845,1.396-1.28c3.748-3.594,5.648-7.687,5.648-12.163
			c0-2.492-0.683-4.563-2.027-6.157c-1.107-1.315-2.584-2.142-4.321-2.435C39.215,12.18,41.076,12,43.004,12 M27.747,16.742
			c-1.815,2.532-3.108,5.575-3.843,9.045c-0.708,3.333-1.066,6.583-1.066,9.662v4.501v2.046v23.265l-6.229,2.042V39.95
			c0-5.162,1.135-9.942,3.372-14.21C21.893,22.09,24.5,19.07,27.747,16.742 M33.449,37.187l0.412,1.044l0.02,0.049
			c-0.813,0.062-1.632,0.158-2.454,0.289C32.117,38.122,32.792,37.662,33.449,37.187 M42.922,39.005c4.313,0,8.01,1.026,10.986,3.05
			c2.77,1.885,4.116,4.623,4.116,8.37c0,4.527-1.78,8.354-5.444,11.699c-3.834,3.501-8.576,6.209-14.094,8.049
			c-3.362,1.12-6.616,1.938-9.729,2.446c4.706-1.472,9.03-3.461,12.911-5.942c5.961-3.816,8.983-9.064,8.983-15.598
			c0-2.553-0.751-4.866-2.231-6.873c-1.422-1.928-3.276-3.433-5.515-4.474c-0.534-0.249-1.076-0.467-1.623-0.655
			C41.866,39.029,42.414,39.005,42.922,39.005 M43.004,10c-5.456,0-10.352,1.323-14.689,3.969
			c-4.337,2.646-7.705,6.26-10.105,10.844c-2.402,4.581-3.601,9.628-3.601,15.138v30.114l10.229-3.354V41.996L25,42.405
			c3.764-1.473,7.446-2.209,11.049-2.209c2.072,0,4.077,0.45,6.015,1.35c1.936,0.9,3.52,2.183,4.746,3.847
			c1.228,1.664,1.842,3.559,1.842,5.687c0,5.839-2.69,10.475-8.062,13.913c-5.374,3.437-11.553,5.863-18.536,7.282l0.737,2.946
			c5.075-0.163,10.516-1.214,16.327-3.15c5.81-1.938,10.746-4.759,14.811-8.47c4.063-3.709,6.096-8.102,6.096-13.176
			c0-4.419-1.665-7.76-4.99-10.023c-3.331-2.264-7.365-3.396-12.112-3.396c-1.911,0-4.255,0.3-7.038,0.9l-0.162-0.41
			c4.363-2.454,8.317-5.469,11.865-9.041c3.544-3.573,5.317-7.079,5.317-10.518c0-2.563-0.953-4.527-2.862-5.891
			C48.13,10.683,45.786,10,43.004,10L43.004,10z M24.838,39.95v-4.501c0-2.945,0.339-6.026,1.022-9.247
			c0.682-3.218,1.854-5.986,3.519-8.305c1.663-2.318,3.858-3.479,6.587-3.479c1.801,0,3.22,0.613,4.255,1.842
			c1.036,1.228,1.557,2.851,1.557,4.868c0,3.928-1.678,7.502-5.033,10.72C33.388,35.068,29.419,37.77,24.838,39.95L24.838,39.95z"/>
	</g>
	<g>
		<path d="M80.919,22.115l-1.19,1.331l-0.032,0.035l-0.029,0.037c-0.689,0.848-1.311,1.647-1.867,2.4l-3.112-0.028l-9.019-0.082
			c-1.699,0-3.305,0.271-4.793,0.808c0.856-0.708,1.726-1.348,2.604-1.914c2.658-1.716,5.817-2.586,9.389-2.586H80.919
			 M75.208,29.956c-0.073,0.141-0.143,0.281-0.209,0.417c-0.947,1.956-1.428,4.148-1.428,6.518v32.733
			c0,3.292-0.795,6.376-2.364,9.167c-1.584,2.82-3.765,5.011-6.667,6.698c-0.021,0.013-0.044,0.025-0.065,0.038
			c0.28-0.286,0.52-0.575,0.723-0.854c1.423-1.949,2.145-4.507,2.145-7.603V41.883c0-2.313,0.717-4.416,2.19-6.428
			C70.985,33.471,72.893,31.624,75.208,29.956 M48.158,81.76c0.891,1.276,1.943,2.443,3.148,3.489
			c1.762,1.531,3.747,2.407,5.912,2.612C56.4,87.954,55.562,88,54.704,88c-3.847,0-7.417-0.917-10.648-2.73L48.158,81.76
			 M85.392,20.115H72.869c-3.981,0-7.475,0.97-10.474,2.905c-3.001,1.937-5.837,4.597-8.511,7.979l1.801,1.802
			c1.474-1.691,3.014-2.948,4.624-3.766c1.607-0.818,3.396-1.228,5.359-1.228l9,0.082c-2.78,1.91-5.032,4.038-6.75,6.383
			c-1.719,2.347-2.577,4.883-2.577,7.61V77.07c0,2.673-0.585,4.814-1.76,6.424c-1.172,1.609-2.959,2.414-5.358,2.414
			c-2.075,0-3.941-0.724-5.605-2.169c-1.665-1.445-2.988-3.123-3.97-5.031l-7.938,6.791C44.856,88.5,49.521,90,54.704,90
			c4.036,0,7.65-0.928,10.841-2.781c3.193-1.856,5.659-4.338,7.406-7.448c1.747-3.108,2.62-6.49,2.62-10.146V36.891
			c0-2.071,0.408-3.954,1.228-5.646c0.818-1.691,2.29-3.846,4.42-6.466L85.392,20.115L85.392,20.115z"/>
	</g>
</g>
<polygon points="29.404,38.578 34.248,35.859 35.029,38.891 "/>
</svg>
