<?xml version="1.0" encoding="utf-8"?>
<!-- Generator: Adobe Illustrator 16.0.0, SVG Export Plug-In . SVG Version: 6.00 Build 0)  -->
<!DOCTYPE svg PUBLIC "-//W3C//DTD SVG 1.1//EN" "http://www.w3.org/Graphics/SVG/1.1/DTD/svg11.dtd">
<svg version="1.1" id="Ebene_1" xmlns="http://www.w3.org/2000/svg" xmlns:xlink="http://www.w3.org/1999/xlink" x="0px" y="0px"
	 width="100px" height="100px" viewBox="0 0 100 100" style="enable-background:new 0 0 100 100;" xml:space="preserve">
<style type="text/css">
<![CDATA[
	.st0{fill:#181716;}
	.st1{fill:none;stroke:#181716;stroke-width:5;stroke-miterlimit:10;}
	.st2{fill:none;stroke:#181716;stroke-width:7;stroke-linecap:round;stroke-linejoin:round;stroke-miterlimit:10;}
	.st3{fill:none;stroke:#181716;stroke-width:9;stroke-linecap:round;stroke-linejoin:round;stroke-miterlimit:10;}
]]>
</style>
<path class="st0" d="M97.479,87.729L64.341,54.6c3.677-5.525,5.833-12.146,5.833-19.262C70.174,16.126,54.543,0.5,35.337,0.5
	C16.126,0.5,0.5,16.126,0.5,35.337c0,19.206,15.626,34.836,34.837,34.836c7.116,0,13.737-2.155,19.261-5.832l33.131,33.138
	c1.346,1.347,3.109,2.021,4.88,2.021c1.762,0,3.524-0.674,4.87-2.021C100.174,94.787,100.174,90.423,97.479,87.729z M11.224,35.337
	c0-13.294,10.819-24.113,24.113-24.113c13.295,0,24.113,10.819,24.113,24.113c0,13.295-10.818,24.113-24.113,24.113
	C22.043,59.45,11.224,48.632,11.224,35.337z"/>
</svg>
