<?xml version="1.0" encoding="utf-8"?>
<!-- Generator: Adobe Illustrator 16.0.0, SVG Export Plug-In . SVG Version: 6.00 Build 0)  -->
<!DOCTYPE svg PUBLIC "-//W3C//DTD SVG 1.1//EN" "http://www.w3.org/Graphics/SVG/1.1/DTD/svg11.dtd">
<svg version="1.1" id="Ebene_1" xmlns="http://www.w3.org/2000/svg" xmlns:xlink="http://www.w3.org/1999/xlink" x="0px" y="0px"
	 width="928px" height="490px" viewBox="0 0 928 490" enable-background="new 0 0 928 490" xml:space="preserve">
<g>
	<path d="M463.997,237.54c40.657,0,80.751,7.646,116.265,22.142c8.563,44.012-3.025,85.146-34.479,122.322
		c-24.93,29.467-57.959,50.617-81.786,61.203c-23.824-10.586-56.854-31.734-81.783-61.203
		c-31.453-37.176-43.039-78.311-34.475-122.322C383.249,245.186,423.343,237.54,463.997,237.54 M463.997,229.203
		c-44.895,0-87.033,8.899-123.521,24.477c-24.691,110.881,77.848,179.475,123.521,198.605
		c45.677-19.131,148.216-87.725,123.526-198.605C551.035,238.103,508.893,229.203,463.997,229.203L463.997,229.203z"/>
	<g>
		<path d="M22.13,36.271C69.935,78.883,149.831,147.522,332.245,205.5c35.846,11.393,21.297,32.034,18.063,47.518
			C326.966,364.727,422.61,433.658,464.517,452.5c-102.807,8.986-261.754-32.379-277.314-88.514
			c55,26.996,128.359,35.75,128.359,35.75C256.19,385.867,153.3,344.537,137.183,299.52
			c42.496,24.771,121.275,52.281,162.541,57.283c0,0-191.996-61.73-204.223-134.117c38.744,31.996,100.434,67.844,191.18,87.34
			c0,0-226.629-79.519-240.643-187.794c74.035,62.426,140.607,112.818,236.752,141.161C282.79,263.393,12.138,126.677,22.13,36.271z
			"/>
		<path d="M905.869,36.271C858.064,78.883,778.168,147.522,595.756,205.5c-35.846,11.393-21.299,32.034-18.061,47.518
			c23.342,111.709-72.307,180.641-114.214,199.482c102.81,8.986,261.759-32.379,277.319-88.514
			c-55.002,26.996-128.361,35.75-128.361,35.75c59.371-13.869,162.262-55.199,178.379-100.217
			c-42.496,24.771-121.275,52.281-162.541,57.283c0,0,191.996-61.73,204.223-134.117c-38.744,31.996-100.434,67.844-191.182,87.34
			c0,0,226.629-79.519,240.645-187.794c-74.035,62.426-140.607,112.818-236.754,141.161
			C645.209,263.393,915.863,126.677,905.869,36.271z"/>
	</g>
	<g>
		<path d="M448.981,278.059c2.998,2.082,4.5,5.123,4.5,9.125c0,3.521-1.221,6.822-3.66,9.902c-2.441,3.082-5.723,5.744-9.844,7.982
			c-4.123,2.242-8.664,3.883-13.625,4.922l-1.32-3.24c4.32-2,7.641-4.4,9.963-7.203c2.32-2.801,3.48-5.922,3.48-9.363
			c0-2.48-0.699-4.459-2.1-5.943c-1.4-1.479-3.383-2.219-5.943-2.219c-3.602,0-6.643,1.02-9.123,3.061s-4.32,4.643-5.521,7.803
			c-1.201,3.162-1.801,6.422-1.801,9.783v36.254c0,2.322-0.342,4.303-1.021,5.941c-0.68,1.643-1.781,3.303-3.301,4.982l0.721,0.48
			c3.602-2.24,7.4-3.361,11.404-3.361c2.641,0,5.801,0.32,9.482,0.959c0.561,0.082,1.701,0.242,3.422,0.48
			c1.721,0.242,3.502,0.361,5.344,0.361c2.799,0,5.299-0.721,7.502-2.162c2.199-1.439,4.262-3.398,6.182-5.881l2.881,2.041
			l-9.723,21.006c-4.082-0.32-9.285-1.121-15.607-2.398c-3.84-0.723-7.201-1.281-10.082-1.682s-6.002-0.6-9.365-0.6
			c-5.361,0-10.244,1.52-14.645,4.563l-3.602-3.363c1.84-1.52,3.182-3.301,4.021-5.342c0.842-2.041,1.262-4.701,1.262-7.982v-32.533
			c0-7.361,1.621-14.045,4.861-20.047s7.803-10.744,13.686-14.225c5.881-3.48,12.623-5.221,20.227-5.221
			C442.198,274.939,445.979,275.979,448.981,278.059z"/>
		<path d="M532.832,279.26c3.279,2.881,4.922,6.682,4.922,11.404c0,3.842-1.08,7.703-3.24,11.584
			c-2.16,3.883-5.064,7.305-8.705,10.264c-3.643,2.961-7.664,5.043-12.063,6.242l-1.801-3.121c3.438-1.6,6.221-4.061,8.342-7.383
			c2.121-3.32,3.182-6.902,3.182-10.744c0-4.561-1.242-8.223-3.723-10.984c-2.48-2.76-5.721-4.141-9.723-4.141
			c-4.242,0-8.223,1.701-11.945,5.102c-3.721,3.402-6.682,7.965-8.883,13.686c-2.201,5.723-3.301,11.865-3.301,18.426
			c0,6.723,1.039,12.666,3.121,17.828c2.082,5.16,4.982,9.182,8.703,12.064c3.721,2.881,7.984,4.32,12.785,4.32
			c3.439,0,6.902-0.859,10.385-2.58c3.48-1.721,6.861-4.221,10.143-7.502l3.24,3c-3.762,4.883-8.422,8.943-13.984,12.184
			c-5.563,3.242-11.385,4.861-17.467,4.861c-6.563,0-12.303-1.518-17.227-4.561c-4.92-3.041-8.701-7.262-11.342-12.664
			s-3.963-11.584-3.963-18.547c0-9.764,2.221-18.707,6.662-26.83c4.441-8.121,10.443-14.525,18.008-19.207
			c7.563-4.682,15.863-7.021,24.908-7.021C525.229,274.939,529.551,276.379,532.832,279.26z"/>
	</g>
</g>
</svg>
